<svg width="44" height="44" viewBox="0 0 44 44" fill="none" xmlns="http://www.w3.org/2000/svg">
<circle opacity="0.4" cx="22" cy="22" r="22" fill="#5B78EE"/>
<path d="M15.8965 32H29.4043V29.416H18.9863L20.0254 30.3047V28.3359L18.9863 30.3047L24.5098 24.8906C25.6947 23.7148 26.6152 22.7214 27.2715 21.9102C27.9368 21.099 28.4062 20.3561 28.6797 19.6816C28.9531 19.0072 29.0898 18.2962 29.0898 17.5488V17.5215C29.0898 16.4551 28.8118 15.5026 28.2559 14.6641C27.709 13.8164 26.9479 13.151 25.9727 12.668C24.9974 12.1849 23.8717 11.9434 22.5957 11.9434C21.3197 11.9434 20.1576 12.2031 19.1094 12.7227C18.0703 13.2422 17.25 13.9622 16.6484 14.8828C16.0469 15.8034 15.7461 16.8516 15.7461 18.0273V18.123H18.6445L18.6582 18.0273C18.6582 17.362 18.8314 16.765 19.1777 16.2363C19.5241 15.6986 19.9935 15.2702 20.5859 14.9512C21.1875 14.6322 21.8711 14.4727 22.6367 14.4727C23.3112 14.4727 23.9036 14.6094 24.4141 14.8828C24.9245 15.1562 25.3255 15.5345 25.6172 16.0176C25.918 16.5007 26.0684 17.0566 26.0684 17.6855V17.7129C26.0684 18.2233 25.9818 18.7109 25.8086 19.1758C25.6354 19.6315 25.321 20.1465 24.8652 20.7207C24.4095 21.2949 23.7396 22.0241 22.8555 22.9082L15.8965 29.8945V32Z" fill="#100049"/>
</svg>
