<svg width="44" height="44" viewBox="0 0 44 44" fill="none" xmlns="http://www.w3.org/2000/svg">
<circle opacity="0.4" cx="22" cy="22" r="22" fill="#5B78EE"/>
<path d="M22.4453 32.3281C23.849 32.3281 25.084 32.082 26.1504 31.5898C27.2259 31.0977 28.069 30.4141 28.6797 29.5391C29.2904 28.6641 29.5957 27.666 29.5957 26.5449V26.5176C29.5957 25.1322 29.1536 24.0202 28.2695 23.1816C27.3854 22.3431 26.2188 21.8646 24.7695 21.7461V21.6777C25.5716 21.5137 26.2826 21.2266 26.9023 20.8164C27.5312 20.3971 28.0234 19.8776 28.3789 19.2578C28.7435 18.6289 28.9258 17.9043 28.9258 17.084V17.0566C28.9258 16.0449 28.6569 15.1562 28.1191 14.3906C27.5814 13.625 26.8249 13.028 25.8496 12.5996C24.8743 12.1621 23.7305 11.9434 22.418 11.9434C21.1328 11.9434 19.998 12.1712 19.0137 12.627C18.0384 13.0736 17.2546 13.707 16.6621 14.5273C16.0788 15.3477 15.7324 16.3092 15.623 17.4121L15.6094 17.5625H18.5078L18.5215 17.4258C18.5853 16.8151 18.7858 16.2865 19.123 15.8398C19.4603 15.3932 19.9115 15.0514 20.4766 14.8145C21.0417 14.5775 21.6888 14.459 22.418 14.459C23.1654 14.459 23.7988 14.5775 24.3184 14.8145C24.847 15.0423 25.2435 15.3796 25.5078 15.8262C25.7812 16.2728 25.918 16.8151 25.918 17.4531V17.4805C25.918 18.0911 25.7585 18.6335 25.4395 19.1074C25.1296 19.5814 24.6875 19.9551 24.1133 20.2285C23.5482 20.4928 22.8919 20.625 22.1445 20.625H19.834V23.0312H22.2402C23.5527 23.0312 24.5872 23.332 25.3438 23.9336C26.1003 24.526 26.4785 25.3783 26.4785 26.4902V26.5176C26.4785 27.1465 26.3099 27.707 25.9727 28.1992C25.6354 28.6914 25.1615 29.0788 24.5508 29.3613C23.9492 29.6348 23.2474 29.7715 22.4453 29.7715C21.224 29.7715 20.2259 29.4935 19.4512 28.9375C18.6855 28.3724 18.2572 27.6569 18.166 26.791L18.1523 26.6406H15.1992L15.2129 26.8047C15.304 27.8802 15.6549 28.8372 16.2656 29.6758C16.8763 30.5052 17.7057 31.1569 18.7539 31.6309C19.8112 32.0957 21.0417 32.3281 22.4453 32.3281Z" fill="#100049"/>
</svg>