<svg width="263" height="264" viewBox="0 0 263 264" fill="none" xmlns="http://www.w3.org/2000/svg">
<circle cx="131.665" cy="131.991" r="131.335" fill="#5B78EE"/>
<path d="M175.517 69.4165V135.994C175.517 125.824 183.909 117.578 194.259 117.578C204.608 117.578 213 125.824 213 135.994V69.4165C213 59.2468 204.608 51 194.259 51C183.909 51 175.517 59.2468 175.517 69.4165Z" fill="url(#paint0_linear_1279_2962)"/>
<path d="M40.0061 136C40.0061 158.704 49.0061 180.047 65.3411 196.104C81.6761 212.156 103.401 221 126.5 221H126.549C136.886 220.988 145.266 212.747 145.266 202.589C145.266 192.42 136.874 184.179 126.531 184.179H126.5V184.167C99.4757 184.167 77.483 162.562 77.483 136C77.483 146.17 69.0907 154.416 58.7415 154.416C48.3924 154.416 40 146.17 40 136H40.0061Z" fill="url(#paint1_linear_1279_2962)"/>
<path d="M152.723 51.0063H126.501C103.402 51.0063 81.6769 59.8443 65.3419 75.896C49.0069 91.9537 40.0068 113.296 40.0068 136C40.0068 146.17 48.3992 154.417 58.7483 154.417C69.0975 154.417 77.4898 146.17 77.4898 136C77.4898 109.445 99.4765 87.8333 126.507 87.8333H152.729V51.0063H152.723Z" fill="url(#paint2_linear_1279_2962)"/>
<path d="M126.5 184.167V184.179H126.53C136.879 184.179 145.266 192.42 145.266 202.589C145.266 212.753 136.885 220.988 126.548 221C149.635 220.988 171.336 212.144 187.659 196.104C203.994 180.053 212.994 158.704 212.994 136C212.994 125.83 204.601 117.583 194.252 117.583C183.903 117.583 175.511 125.83 175.511 136C175.511 162.562 153.524 184.167 126.494 184.167H126.5Z" fill="url(#paint3_linear_1279_2962)"/>
<defs>
<linearGradient id="paint0_linear_1279_2962" x1="174.947" y1="118.762" x2="227.535" y2="103.142" gradientUnits="userSpaceOnUse">
<stop stop-color="#BAC0EF"/>
<stop offset="1" stop-color="white"/>
</linearGradient>
<linearGradient id="paint1_linear_1279_2962" x1="38.3996" y1="203.766" x2="133.178" y2="124.714" gradientUnits="userSpaceOnUse">
<stop stop-color="#BAC0EF"/>
<stop offset="1" stop-color="white"/>
</linearGradient>
<linearGradient id="paint2_linear_1279_2962" x1="38.2931" y1="133.45" x2="150.12" y2="51.3531" gradientUnits="userSpaceOnUse">
<stop stop-color="#BAC0EF"/>
<stop offset="1" stop-color="white"/>
</linearGradient>
<linearGradient id="paint3_linear_1279_2962" x1="125.179" y1="200.032" x2="225.429" y2="143.558" gradientUnits="userSpaceOnUse">
<stop stop-color="#BAC0EF"/>
<stop offset="1" stop-color="white"/>
</linearGradient>
</defs>
</svg>
